<?xml version="1.0" encoding="utf-8"?>
<!-- Generator: Adobe Illustrator 18.1.0, SVG Export Plug-In . SVG Version: 6.00 Build 0)  -->
<!DOCTYPE svg PUBLIC "-//W3C//DTD SVG 1.1//EN" "http://www.w3.org/Graphics/SVG/1.1/DTD/svg11.dtd">
<svg version="1.1" id="Layer_1" xmlns="http://www.w3.org/2000/svg" xmlns:xlink="http://www.w3.org/1999/xlink" x="0px" y="0px"
	 viewBox="0 0 612 601.9" enable-background="new 0 0 612 601.9" xml:space="preserve">
<ellipse fill="#E84648" cx="305.9" cy="301" rx="305.9" ry="301"/>
<path fill="#FFFFFF" d="M157.5,214.3l125.1,92.2c0,0,13,14.4,24.9,0L429,212.3C429,212.3,157.5,217.2,157.5,214.3z"/>
<path fill="#FFFFFF" d="M145.5,230.7v134.5l62.8-75.7c0,0,9.5-9,0-16.9C198.8,264.6,145.5,230.7,145.5,230.7z"/>
<path fill="#FFFFFF" d="M160.9,379.7l63.3-81.7c0,0,7.5-11,16.9,0l42.9,42.9c0,0,10.9,7.5,21.9,0l45.2-45.2c3.2-3.2,8-4.1,12-2.1
	c2.3,1.1,4.5,2.9,5.9,5.5c1.7,3.2,0.9,7.1-1.4,9.9c-8.3,9.5-33,41.2-24.3,70.8H160.9z"/>
<path fill="#FFFFFF" d="M444,230.7V281h-52.3c0,0-10.5-4.5,0-14.4L444,230.7z"/>
<path fill="#FFFFFF" d="M475.8,312.9c0,0-67.1-43.8-106.8,22.9c-5.5,9.3-7.9,20.2-6.6,31c2.8,23.8,15.7,64.2,71.4,64.8
	c7.1,0.1,14.2-1.6,20.6-4.8c22.2-10.8,69.6-41.9,36-99.5l-64.3,84.5l-41.5-36.3l11.6-13.1l22.8,20.2L475.8,312.9z"/>
</svg>
