<?xml version="1.0" encoding="utf-8"?>
<!-- Generator: Adobe Illustrator 18.1.0, SVG Export Plug-In . SVG Version: 6.00 Build 0)  -->
<!DOCTYPE svg PUBLIC "-//W3C//DTD SVG 1.1//EN" "http://www.w3.org/Graphics/SVG/1.1/DTD/svg11.dtd">
<svg version="1.1" id="Layer_1" xmlns="http://www.w3.org/2000/svg" xmlns:xlink="http://www.w3.org/1999/xlink" x="0px" y="0px"
	 viewBox="0 0 581.1 473.7" enable-background="new 0 0 581.1 473.7" xml:space="preserve">
<path fill="#424343" d="M581.1,196.6h-60.4C502,85,406.9,0,292.4,0S82.7,85,64,196.6H0v90.5h65.9
	c22.6,106.6,115.4,186.6,226.4,186.6s203.9-79.9,226.4-186.6h62.3V196.6z"/>
<ellipse fill="none" stroke="#FFFFFF" stroke-width="10" stroke-miterlimit="10" cx="291.9" cy="237.3" rx="212.3" ry="215.4"/>
<path fill="#EDEDED" d="M570.3,208.5H425.6c-14.9-59.4-68-103.3-131.4-103.3c-63.4,0-116.5,44-131.4,103.3h-151v68.6H163
	c15.3,58.9,68.1,102.4,131.2,102.4c63.1,0,116-43.5,131.2-102.4h144.9V208.5z"/>
<rect x="47.7" y="188.3" fill="none" width="539.7" height="84.4"/>
<text transform="matrix(0.9898 0 0 1 47.7051 267.2551)"><tspan x="0" y="0" fill="#E94747" font-family="'Futura-Bold'" font-size="95.1296">music</tspan><tspan x="280.2" y="0" font-family="'Futura-Bold'" font-size="95.1296"> </tspan><tspan x="312.9" y="0" fill="#E94747" font-family="'Futura-Bold'" font-size="95.1296">bar</tspan></text>
</svg>
