<?xml version="1.0" encoding="utf-8"?>
<!-- Generator: Adobe Illustrator 18.1.0, SVG Export Plug-In . SVG Version: 6.00 Build 0)  -->
<!DOCTYPE svg PUBLIC "-//W3C//DTD SVG 1.1//EN" "http://www.w3.org/Graphics/SVG/1.1/DTD/svg11.dtd">
<svg version="1.1" id="Layer_1" xmlns="http://www.w3.org/2000/svg" xmlns:xlink="http://www.w3.org/1999/xlink" x="0px" y="0px"
	 viewBox="0 0 317.8 317.8" enable-background="new 0 0 317.8 317.8" xml:space="preserve">
<circle fill="#EC414B" cx="158.9" cy="158.9" r="158.9"/>
<path fill="#FFFFFF" d="M147.9,109.4c0,1.9-0.8,3.6-2,4.8c-1.2,1.2-2.9,2-4.8,2h-13.8v13.5c0,3.8-3.1,6.8-6.8,6.8
	c-3.8,0-6.8-3.1-6.8-6.8v-13.5h-13.2c-3.8,0-6.8-3.1-6.8-6.8c0-3.7,3.1-6.8,6.8-6.8h13.2V89.1c0-3.7,3.1-6.8,6.8-6.8
	c1.9,0,3.6,0.8,4.8,2c1.2,1.2,2,2.9,2,4.8v13.5h13.8C144.8,102.6,147.9,105.7,147.9,109.4z"/>
<path fill="#FFFFFF" d="M163.2,186.5c0,0-26.1-6.6-38.3,18c0,0-16.7,32.5,15.2,44.3c0,0,35,5.5,42.8-30.1V115.4
	c0,0,14.3,6,20.7,28.6v20.9c0,0,0.3,12.7,12.2,9.7c0,0,3.4-0.4,6.1-10.9c0,0,8.2-28.6-6.7-55.3c0,0-11-21.2-34.9-40.4h-17.1V186.5z"
	/>
</svg>
