<?xml version="1.0" encoding="utf-8"?>
<!-- Generator: Adobe Illustrator 18.1.0, SVG Export Plug-In . SVG Version: 6.00 Build 0)  -->
<!DOCTYPE svg PUBLIC "-//W3C//DTD SVG 1.1//EN" "http://www.w3.org/Graphics/SVG/1.1/DTD/svg11.dtd">
<svg version="1.1" xmlns="http://www.w3.org/2000/svg" xmlns:xlink="http://www.w3.org/1999/xlink" x="0px" y="0px"
	 viewBox="0 0 317.8 317.8" enable-background="new 0 0 317.8 317.8" xml:space="preserve">
<g id="Layer_1">
</g>
<g id="Layer_2">
	<circle fill="#EC404A" cx="158.9" cy="158.9" r="158.9"/>
	<path fill="#FFFFFF" d="M206,132.7H98.6c-3.3,0-6.1-2.7-6.1-6.1v-4.8c0-3.3,2.7-6.1,6.1-6.1H206c3.3,0,6.1,2.7,6.1,6.1v4.8
		C212,129.9,209.3,132.7,206,132.7z"/>
	<path fill="#FFFFFF" d="M206,173.5H98.6c-3.3,0-6.1-2.7-6.1-6.1v-4.8c0-3.3,2.7-6.1,6.1-6.1H206c3.3,0,6.1,2.7,6.1,6.1v4.8
		C212,170.8,209.3,173.5,206,173.5z"/>
	<path fill="#FFFFFF" d="M176.6,213.5H101c-4.7,0-8.5-3.8-8.5-8.5v0c0-4.7,3.8-8.5,8.5-8.5h95.2c4.7,0,1,1.9-2.8,4.8l-4.3,3.5
		c-0.3,0.3-0.9,0.7-1.2,1C183.2,208.9,182.4,209.8,176.6,213.5z"/>
	<path fill="#FFFFFF" d="M57.5,113.8v21.9c0,0,2.4,4.6,7.9,1.7l14.9-10.1c0,0,3.9-2.9-1.7-6.4l-13.8-9.6
		C64.8,111.2,59.3,108.6,57.5,113.8z"/>
	<path fill="#FFFFFF" d="M57.5,154.4v21.9c0,0,2.4,4.6,7.9,1.7l14.9-10.1c0,0,3.9-2.9-1.7-6.4l-13.8-9.6
		C64.8,151.8,59.3,149.2,57.5,154.4z"/>
	<path fill="#FFFFFF" d="M57.5,194.4v21.9c0,0,2.4,4.6,7.9,1.7l14.9-10.1c0,0,3.9-2.9-1.7-6.4l-13.8-9.6
		C64.8,191.8,59.3,189.2,57.5,194.4z"/>
	<path fill="#FFFFFF" d="M181.4,72.4c0,1.9-0.8,3.6-2,4.8c-1.2,1.2-2.9,2-4.8,2h-13.8v13.5c0,3.8-3.1,6.8-6.8,6.8
		c-3.8,0-6.8-3.1-6.8-6.8V79.2h-13.2c-3.8,0-6.8-3.1-6.8-6.8c0-3.7,3.1-6.8,6.8-6.8h13.2V52.1c0-3.7,3.1-6.8,6.8-6.8
		c1.9,0,3.6,0.8,4.8,2c1.2,1.2,2,2.9,2,4.8v13.5h13.8C178.3,65.6,181.4,68.7,181.4,72.4z"/>
	<path fill="#FFFFFF" d="M223.9,203.8c0,0-26.1-6.6-38.3,18c0,0-16.7,32.5,15.2,44.3c0,0,35,5.5,42.8-30.1V132.7
		c0,0,14.3,6,20.7,28.6v20.9c0,0,0.3,12.7,12.2,9.7c0,0,3.4-0.4,6.1-10.9c0,0,8.2-28.6-6.7-55.3c0,0-11-21.2-34.9-40.4h-17.1V203.8z
		"/>
</g>
</svg>
