<?xml version="1.0" encoding="utf-8"?>
<!-- Generator: Adobe Illustrator 18.1.0, SVG Export Plug-In . SVG Version: 6.00 Build 0)  -->
<!DOCTYPE svg PUBLIC "-//W3C//DTD SVG 1.1//EN" "http://www.w3.org/Graphics/SVG/1.1/DTD/svg11.dtd">
<svg version="1.1" xmlns="http://www.w3.org/2000/svg" xmlns:xlink="http://www.w3.org/1999/xlink" x="0px" y="0px"
	 viewBox="0 0 317.8 317.8" enable-background="new 0 0 317.8 317.8" xml:space="preserve">
<g id="Layer_3">
	<circle fill="#EC404A" cx="158.9" cy="158.9" r="158.9"/>
</g>
<g id="Layer_2">
	<path fill="#FFFFFF" stroke="#EC404A" stroke-miterlimit="10" d="M66.7,236.7h37c0,0,3.1,17.6-8,19H75.3
		C75.3,255.6,61.7,255.5,66.7,236.7z"/>
	<path fill="#FFFFFF" stroke="#EC404A" stroke-miterlimit="10" d="M216.4,236.7h37c0,0,3.1,17.6-8,19H225
		C225,255.6,211.5,255.5,216.4,236.7z"/>
	<path fill="#FFFFFF" stroke="#EC404A" stroke-miterlimit="10" d="M281.1,210.9v-110c0,0-2.3-39.1-40.9-40.7H78.3
		c0,0-35,0.3-39.5,41.2v109.5c0,0,0.7,13.3,14.5,15.9h212.5C265.7,226.8,279.5,226.5,281.1,210.9z"/>
	<rect x="197.2" y="96.7" fill="#EC404A" width="37.4" height="19"/>
	<rect x="243.6" y="96.7" fill="#EC404A" width="19" height="19"/>
	<path fill="#EC404A" d="M70.8,181.2h-0.4c-2.7,0-4.8-2.2-4.8-4.8V111c0-2.7,2.2-4.8,4.8-4.8h0.4c2.7,0,4.8,2.2,4.8,4.8v65.3
		C75.7,179,73.5,181.2,70.8,181.2z"/>
	<path fill="#EC404A" d="M90.3,190.3H89c-2.3,0-4.2-1.9-4.2-4.2v-85.3c0-2.3,1.9-4.2,4.2-4.2h1.2c2.3,0,4.2,1.9,4.2,4.2v85.3
		C94.4,188.4,92.6,190.3,90.3,190.3z"/>
	<path fill="#EC404A" d="M109.3,199.4h-1.2c-2.2,0-4-1.8-4-4V91c0-2.2,1.8-4,4-4h1.2c2.2,0,4,1.8,4,4v104.5
		C113.2,197.6,111.4,199.4,109.3,199.4z"/>
	<path fill="#EC404A" d="M127.8,199.4h-1.3c-2.3,0-4.2-1.9-4.2-4.2v-104c0-2.3,1.9-4.2,4.2-4.2h1.3c2.3,0,4.2,1.9,4.2,4.2v104
		C132,197.5,130.1,199.4,127.8,199.4z"/>
	<path fill="#EC404A" d="M146.3,190.3H145c-2.3,0-4.2-1.9-4.2-4.2v-85.2c0-2.3,1.9-4.2,4.2-4.2h1.3c2.3,0,4.2,1.9,4.2,4.2v85.2
		C150.5,188.4,148.6,190.3,146.3,190.3z"/>
	<path fill="#EC404A" d="M165.2,181.2H164c-2.2,0-4.1-1.8-4.1-4.1v-66.8c0-2.2,1.8-4.1,4.1-4.1h1.2c2.2,0,4.1,1.8,4.1,4.1v66.8
		C169.3,179.3,167.4,181.2,165.2,181.2z"/>
	<ellipse fill="#EC404A" cx="229.9" cy="167" rx="32.7" ry="32.5"/>
	<circle fill="#FFFFFF" stroke="#EC404A" stroke-miterlimit="10" cx="229.9" cy="167" r="19.2"/>
</g>
</svg>
